<?xml version="1.0" standalone="no"?><!DOCTYPE svg PUBLIC "-//W3C//DTD SVG 1.1//EN" "http://www.w3.org/Graphics/SVG/1.1/DTD/svg11.dtd"><svg t="1757286199959" class="icon" viewBox="0 0 1024 1024" version="1.1" xmlns="http://www.w3.org/2000/svg" p-id="21378" xmlns:xlink="http://www.w3.org/1999/xlink" width="200" height="200"><path d="M853.34016 384A298.65984 298.65984 0 0 0 554.65984 85.34016h-85.31968A298.65984 298.65984 0 0 0 170.65984 384v42.65984c0 24.6784 25.25184 29.65504 25.25184 42.68032 0 13.0048-25.25184 29.63456-25.25184 42.65984v42.65984A85.34016 85.34016 0 0 0 256 640h128v85.34016a42.65984 42.65984 0 0 0 42.65984 42.65984h21.34016v-42.65984h42.65984V768h42.68032v-42.65984h42.65984V768h21.34016a42.65984 42.65984 0 0 0 42.65984-42.65984V640h128a85.34016 85.34016 0 0 0 85.34016-85.34016V512c0-19.33312-25.25184-29.65504-25.25184-42.65984 0-13.02528 25.25184-20.6848 25.25184-42.68032V384z m-414.49472 88.76032c-20.7872 90.48064-54.00576 75.03872-97.81248 73.58464-46.4896-1.59744-77.57824-6.02112-87.32672-26.68544-23.8592-28.18048-20.15232-157.4912 94.67904-109.28128 51.99872 21.83168 96.91136 39.13728 90.46016 62.38208z m101.6832 181.3504c-22.36416 0-16.9984-25.94816-28.52864-25.76384-12.0832 0.24576-8.3968 25.76384-30.1056 25.76384a22.81472 22.81472 0 0 1-22.38464-28.83584 280.1664 280.1664 0 0 1 32.1536-63.36512 22.85568 22.85568 0 0 1 39.07584 0c13.37344 19.6608 24.20736 40.96 32.19456 63.36512a22.85568 22.85568 0 0 1-22.40512 28.83584z m228.49536-134.4512c-9.74848 20.6848-40.83712 25.088-87.32672 26.68544-43.78624 1.45408-77.0048 16.896-97.81248-73.58464-6.4512-23.2448 38.48192-40.5504 90.46016-62.38208 114.83136-48.2304 118.53824 81.1008 94.67904 109.28128z" fill="#444B54" p-id="21379"></path><path d="M704 750.22336a85.34016 85.34016 0 0 1-85.34016 85.34016h-42.65984v39.1168h-42.65984v-39.1168h-42.68032v39.1168h-42.65984v-39.1168h-42.65984a85.34016 85.34016 0 0 1-85.34016-85.34016v-67.56352H256v116.30592a85.31968 85.31968 0 0 0 35.47136 69.2224l135.18848 97.3824 25.6-12.8a133.57056 133.57056 0 0 1 119.48032 0l25.6 12.8 135.18848-97.36192a85.34016 85.34016 0 0 0 35.47136-69.24288v-116.30592h-64v67.56352z" fill="#444B54" p-id="21380"></path></svg>