<?xml version="1.0" standalone="no"?><!DOCTYPE svg PUBLIC "-//W3C//DTD SVG 1.1//EN" "http://www.w3.org/Graphics/SVG/1.1/DTD/svg11.dtd"><svg t="1757286134284" class="icon" viewBox="0 0 1024 1024" version="1.1" xmlns="http://www.w3.org/2000/svg" p-id="17725" xmlns:xlink="http://www.w3.org/1999/xlink" width="200" height="200"><path d="M771.136 642.88c27.072 51.232 23.424 109.12-10.944 173.728-34.336 64.576-117.088 105.536-248.192 122.944l259.136-296.64z m-68.16 5.824L461.664 928l-101.856-13.696 213.504-256.704 129.6-8.896zM512 64c222.688 0 403.2 179.296 403.2 459.136l44.8 22.048v44.064a1640.96 1640.96 0 0 1-55.68 11.424c5.056 26.24 7.616 63.264 7.616 110.944 0 49.6-26.688 113.152-80.064 190.624l-60.672-17.056c36.608-60 54.944-121.92 54.944-185.792 0-25.792-2.816-50.88-8.128-74.976l-2.272-9.472-28.608 3.712c-86.528 10.464-178.24 15.68-275.136 15.68-96.736 0-188.256-5.216-274.624-15.616l-28.64-3.68-2.24 9.376a348 348 0 0 0-8.096 74.976c0 63.84 18.304 125.76 54.944 185.792l-60.704 17.056c-53.344-77.472-80.032-141.024-80.032-190.624 0-47.648 2.528-84.608 7.584-110.976A1394.816 1394.816 0 0 1 64 589.248v-44.064c29.856-9.76 44.8-17.12 44.8-22.048C108.8 243.296 289.312 64 512 64zM232.832 642.88l259.712 18.56-190.432 215.488c-38.624-47.648-61.696-84.256-69.28-109.824-7.584-25.6-7.584-67.008 0-124.192zM620.448 211.52c-16.064-16.064-69.248-1.504-92.736 18.656l-1.024 0.896-2.112-1.088a16.896 16.896 0 0 0-2.208-0.768l-2.24-0.448a11.616 11.616 0 0 0-9.696 2.976l-119.776 119.776 0.64 0.576c-6.784-6.752-16.832-7.68-22.432-2.08l-18.752 18.72c-5.6 5.632-4.672 15.68 2.112 22.4l0.512 0.512-17.12 11.008c-6.016 6.048-5.056 16.8 2.208 24.064l67.488 67.488c7.232 7.232 18.016 8.224 24.032 2.176l11.008-17.152 0.48 0.544c6.784 6.784 16.8 7.712 22.4 2.112l18.752-18.752c5.632-5.6 4.672-15.648-2.08-22.4l0.672 0.704 119.776-119.776a11.616 11.616 0 0 0 2.976-9.696 15.68 15.68 0 0 0-2.432-6.656c20.64-22.88 35.872-77.44 19.552-93.76z m-249.92 200.16l49.792 49.792-6.784 10.592-53.6-53.568 10.592-6.816z m12.16-37.792l75.424 75.424-8.704 8.704-75.424-75.424 8.704-8.704z m220.448-145.024c0 5.44-0.992 13.824-4.256 24.448-3.84 12.544-9.664 24.224-15.68 31.712l-0.832 0.896L545.984 249.6c7.424-6.272 19.616-12.448 32.704-16.48 10.624-3.264 19.04-4.224 24.448-4.256z" fill="#666666" p-id="17726"></path></svg>