<?xml version="1.0" standalone="no"?><!DOCTYPE svg PUBLIC "-//W3C//DTD SVG 1.1//EN" "http://www.w3.org/Graphics/SVG/1.1/DTD/svg11.dtd"><svg t="1757286162298" class="icon" viewBox="0 0 1024 1024" version="1.1" xmlns="http://www.w3.org/2000/svg" p-id="19860" xmlns:xlink="http://www.w3.org/1999/xlink" width="200" height="200"><path d="M913.139757 74.889955a36.569978 36.569978 0 0 1 29.909982 35.999978v475.389712c0 74.419955-23.469986 144.149913-69.759958 207.259875-35.999978 48.99997-85.669948 93.929943-147.73991 133.449919C621.799934 993.059399 519.299996 1021.519382 514.999998 1022.699381a36.519978 36.519978 0 0 1-19.059988 0.07c-4.329997-1.149999-107.429935-28.999982-211.799872-94.829943-62.439962-39.359976-112.439932-84.229949-148.62991-133.379919-46.549972-63.229962-70.159958-133.299919-70.159958-208.269874V110.859933a36.579978 36.579978 0 0 1 29.999982-35.999978L498.720008 0.6A36.769978 36.769978 0 0 1 512 0.61z m-43.229974 511.38969v-437.399735a9.139994 9.139994 0 0 0-7.479995-8.999995L507.000003 74.069955a9.149994 9.149994 0 0 0-3.319998 0L146.000222 139.929915a9.139994 9.139994 0 0 0-7.489996 8.999995v437.349735q0 237.839856 363.77978 361.999781a9.159994 9.159994 0 0 0 5.899996 0q103.399937-35.159979 179.529892-83.909949c120.909927-77.429953 182.20989-170.999896 182.209889-278.099832z" fill="#555555" p-id="19861"></path></svg>